<?xml version="1.0" encoding="UTF-8" standalone="no"?>
<!-- Created with Inkscape (http://www.inkscape.org/) -->

<svg
   xmlns:dc="http://purl.org/dc/elements/1.1/"
   xmlns:cc="http://creativecommons.org/ns#"
   xmlns:rdf="http://www.w3.org/1999/02/22-rdf-syntax-ns#"
   xmlns:svg="http://www.w3.org/2000/svg"
   xmlns="http://www.w3.org/2000/svg"
   xmlns:sodipodi="http://sodipodi.sourceforge.net/DTD/sodipodi-0.dtd"
   xmlns:inkscape="http://www.inkscape.org/namespaces/inkscape"
   width="180"
   height="180"
   viewBox="0 0 180 180"
   id="svg2"
   version="1.1"
   inkscape:version="0.91 r13725"
   sodipodi:docname="icon-oracle-vm-toolbox.svg">
  <defs
     id="defs4">
    <inkscape:perspective
       sodipodi:type="inkscape:persp3d"
       inkscape:vp_x="160.53417 : 135.51662 : 1"
       inkscape:vp_y="7.8219339e-14 : 779.7048 : 0"
       inkscape:vp_z="324.71636 : 134.01523 : 1"
       inkscape:persp3d-origin="293.2698 : 201.85568 : 1"
       id="perspective3337" />
  </defs>
  <sodipodi:namedview
     id="base"
     pagecolor="#a9a9a9"
     bordercolor="#666666"
     borderopacity="1.0"
     inkscape:pageopacity="0"
     inkscape:pageshadow="2"
     inkscape:zoom="1.4142136"
     inkscape:cx="49.619873"
     inkscape:cy="34.164718"
     inkscape:document-units="px"
     inkscape:current-layer="layer1"
     showgrid="false"
     units="px"
     borderlayer="false"
     inkscape:showpageshadow="true"
     inkscape:window-width="1366"
     inkscape:window-height="705"
     inkscape:window-x="0"
     inkscape:window-y="30"
     inkscape:window-maximized="1"
     showguides="true"
     inkscape:guide-bbox="true"
     inkscape:snap-bbox="true"
     inkscape:object-nodes="true"
     inkscape:snap-nodes="true">
    <inkscape:grid
       type="xygrid"
       id="grid3417" />
  </sodipodi:namedview>
  <metadata
     id="metadata7">
    <rdf:RDF>
      <cc:Work
         rdf:about="">
        <dc:format>image/svg+xml</dc:format>
        <dc:type
           rdf:resource="http://purl.org/dc/dcmitype/StillImage" />
        <dc:title />
      </cc:Work>
    </rdf:RDF>
  </metadata>
  <g
     inkscape:label="Layer 1"
     inkscape:groupmode="layer"
     id="layer1"
     transform="translate(0,-872.36216)">
    <path
       style="color:#000000;clip-rule:nonzero;display:inline;overflow:visible;visibility:visible;opacity:1;isolation:auto;mix-blend-mode:normal;color-interpolation:sRGB;color-interpolation-filters:linearRGB;solid-color:#000000;solid-opacity:1;fill:#ffffff;fill-opacity:1;fill-rule:nonzero;stroke:none;stroke-width:1;stroke-linecap:butt;stroke-linejoin:miter;stroke-miterlimit:4;stroke-dasharray:none;stroke-dashoffset:0;stroke-opacity:1;marker:none;color-rendering:auto;image-rendering:auto;shape-rendering:auto;text-rendering:auto;enable-background:accumulate"
       d="M 55.611328 125 C 55.212829 126.62763 55.00776 128.2811 55 129.9375 C 55 144.8843 70.670034 157 90 157 C 103.22071 157 114.72564 151.32972 120.67969 142.96484 A 35 35 0 0 1 111.74219 134.77734 L 94.535156 147.52344 C 92.022851 149.38414 88.531837 149.38414 86.019531 147.52344 L 55.611328 125 z "
       transform="translate(0,872.36216)"
       id="path3465" />
    <path
       style="color:#000000;font-style:normal;font-variant:normal;font-weight:normal;font-stretch:normal;font-size:medium;line-height:normal;font-family:sans-serif;text-indent:0;text-align:start;text-decoration:none;text-decoration-line:none;text-decoration-style:solid;text-decoration-color:#000000;letter-spacing:normal;word-spacing:normal;text-transform:none;direction:ltr;block-progression:tb;writing-mode:lr-tb;baseline-shift:baseline;text-anchor:start;white-space:normal;clip-rule:nonzero;display:inline;overflow:visible;visibility:visible;opacity:1;isolation:auto;mix-blend-mode:normal;color-interpolation:sRGB;color-interpolation-filters:linearRGB;solid-color:#000000;solid-opacity:1;fill:#ffffff;fill-opacity:1;fill-rule:evenodd;stroke:none;stroke-width:10;stroke-linecap:butt;stroke-linejoin:round;stroke-miterlimit:4;stroke-dasharray:none;stroke-dashoffset:0;stroke-opacity:1;color-rendering:auto;image-rendering:auto;shape-rendering:auto;text-rendering:auto;enable-background:accumulate"
       d="M 90.0625 25.001953 A 5.0005 5.0005 0 0 0 87.996094 25.419922 L 36.996094 47.738281 A 5.0005 5.0005 0 0 0 36.818359 47.828125 A 5.0005 5.0005 0 0 0 36.605469 47.933594 A 5.0005 5.0005 0 0 0 36.378906 48.070312 A 5.0005 5.0005 0 0 0 36.197266 48.183594 A 5.0005 5.0005 0 0 0 35.945312 48.369141 A 5.0005 5.0005 0 0 0 35.791016 48.488281 A 5.0005 5.0005 0 0 0 35.589844 48.671875 A 5.0005 5.0005 0 0 0 35.421875 48.830078 A 5.0005 5.0005 0 0 0 35.236328 49.037109 A 5.0005 5.0005 0 0 0 35.091797 49.207031 A 5.0005 5.0005 0 0 0 34.945312 49.40625 A 5.0005 5.0005 0 0 0 34.794922 49.621094 A 5.0005 5.0005 0 0 0 34.677734 49.818359 A 5.0005 5.0005 0 0 0 34.546875 50.054688 A 5.0005 5.0005 0 0 0 34.451172 50.259766 A 5.0005 5.0005 0 0 0 34.339844 50.517578 A 5.0005 5.0005 0 0 0 34.273438 50.705078 A 5.0005 5.0005 0 0 0 34.183594 50.986328 A 5.0005 5.0005 0 0 0 34.128906 51.222656 A 5.0005 5.0005 0 0 0 34.078125 51.462891 A 5.0005 5.0005 0 0 0 34.044922 51.697266 A 5.0005 5.0005 0 0 0 34.013672 51.984375 A 5.0005 5.0005 0 0 0 34.009766 52.144531 A 5.0005 5.0005 0 0 0 34.005859 52.529297 A 5.0005 5.0005 0 0 0 34.009766 52.642578 L 37.410156 105.25195 A 5.0005 5.0005 0 0 0 39.433594 108.95312 L 87.033203 144.02539 A 5.0005 5.0005 0 0 0 92.966797 144.02539 L 109.6582 131.72656 A 35 35 0 0 1 105.64062 122.26562 L 90 133.79102 L 47.240234 102.2832 L 44.585938 61.220703 L 87.539062 85.496094 A 5.0005 5.0005 0 0 0 92.460938 85.496094 L 135.41406 61.220703 L 134.26953 78.921875 A 35 35 0 0 1 139.5 78.5 A 35 35 0 0 1 144.29492 78.871094 L 145.99023 52.642578 A 5.0005 5.0005 0 0 0 145.99023 52.609375 A 5.0005 5.0005 0 0 0 145.99414 52.119141 A 5.0005 5.0005 0 0 0 145.99414 52.107422 A 5.0005 5.0005 0 0 0 145.97461 51.894531 A 5.0005 5.0005 0 0 0 145.95117 51.630859 A 5.0005 5.0005 0 0 0 145.90234 51.369141 A 5.0005 5.0005 0 0 0 145.85547 51.132812 A 5.0005 5.0005 0 0 0 145.75391 50.783203 A 5.0005 5.0005 0 0 0 145.7207 50.671875 A 5.0005 5.0005 0 0 0 145.71875 50.667969 A 5.0005 5.0005 0 0 0 145.59375 50.357422 A 5.0005 5.0005 0 0 0 145.52539 50.195312 A 5.0005 5.0005 0 0 0 145.375 49.912109 A 5.0005 5.0005 0 0 0 145.29883 49.765625 A 5.0005 5.0005 0 0 0 145.29297 49.757812 A 5.0005 5.0005 0 0 0 145.15039 49.541016 A 5.0005 5.0005 0 0 0 145.00977 49.332031 A 5.0005 5.0005 0 0 0 145.00391 49.324219 A 5.0005 5.0005 0 0 0 144.89258 49.189453 A 5.0005 5.0005 0 0 0 144.69531 48.951172 A 5.0005 5.0005 0 0 0 144.68555 48.939453 A 5.0005 5.0005 0 0 0 144.35352 48.609375 A 5.0005 5.0005 0 0 0 144.34375 48.601562 A 5.0005 5.0005 0 0 0 144.1543 48.447266 A 5.0005 5.0005 0 0 0 143.94922 48.28125 A 5.0005 5.0005 0 0 0 143.93945 48.273438 A 5.0005 5.0005 0 0 0 143.54883 48.017578 A 5.0005 5.0005 0 0 0 143.54688 48.015625 A 5.0005 5.0005 0 0 0 143.10742 47.785156 A 5.0005 5.0005 0 0 0 143.00391 47.736328 L 92.003906 25.419922 A 5.0005 5.0005 0 0 0 90.0625 25.001953 z M 90 35.458984 L 129.80859 52.880859 L 90 75.279297 L 50.191406 52.880859 L 90 35.458984 z "
       transform="translate(0,872.36216)"
       id="path3461-5" />
    <rect
       style="color:#000000;clip-rule:nonzero;display:inline;overflow:visible;visibility:visible;opacity:1;isolation:auto;mix-blend-mode:normal;color-interpolation:sRGB;color-interpolation-filters:linearRGB;solid-color:#000000;solid-opacity:1;fill:#ffffff;fill-opacity:1;fill-rule:nonzero;stroke:none;stroke-width:2;stroke-linecap:butt;stroke-linejoin:round;stroke-miterlimit:4;stroke-dasharray:none;stroke-dashoffset:0;stroke-opacity:1;marker:none;color-rendering:auto;image-rendering:auto;shape-rendering:auto;text-rendering:auto;enable-background:accumulate"
       id="rect4218"
       width="10"
       height="57"
       x="85"
       y="955.36218" />
    <circle
       style="color:#000000;clip-rule:nonzero;display:inline;overflow:visible;visibility:visible;opacity:1;isolation:auto;mix-blend-mode:normal;color-interpolation:sRGB;color-interpolation-filters:linearRGB;solid-color:#000000;solid-opacity:1;fill:#009dff;fill-opacity:1;fill-rule:nonzero;stroke:none;stroke-width:10;stroke-linecap:butt;stroke-linejoin:round;stroke-miterlimit:4;stroke-dasharray:none;stroke-dashoffset:0;stroke-opacity:1;marker:none;color-rendering:auto;image-rendering:auto;shape-rendering:auto;text-rendering:auto;enable-background:accumulate"
       id="path3413"
       cx="139.49994"
       cy="985.86218"
       r="25" />
  </g>
</svg>
